HIERARCHY
ROOT Hips
{
	OFFSET 0.00000 0.00000 0.00000
	CHANNELS 6 Xposition Yposition Zposition Zrotation Yrotation Xrotation 
	JOINT LHipJoint
	{
		OFFSET 0 0 0
		CHANNELS 3 Zrotation Yrotation Xrotation
		JOINT LeftUpLeg
		{
			OFFSET 1.53139 -1.83434 0.76626
			CHANNELS 3 Zrotation Yrotation Xrotation
			JOINT LeftLeg
			{
				OFFSET 2.56112 -7.03663 0.00000
				CHANNELS 3 Zrotation Yrotation Xrotation
				JOINT LeftFoot
				{
					OFFSET 2.59983 -7.14299 0.00000
					CHANNELS 3 Zrotation Yrotation Xrotation
					JOINT LeftToeBase
					{
						OFFSET 0.13742 -0.37757 2.00054
						CHANNELS 3 Zrotation Yrotation Xrotation
						End Site
						{
							OFFSET 0.00000 -0.00000 1.02897
						}
					}
				}
			}
		}
	}
	JOINT RHipJoint
	{
		OFFSET 0 0 0
		CHANNELS 3 Zrotation Yrotation Xrotation
		JOINT RightUpLeg
		{
			OFFSET -1.40122 -1.83435 0.76627
			CHANNELS 3 Zrotation Yrotation Xrotation
			JOINT RightLeg
			{
				OFFSET -2.54052 -6.98003 0.00000
				CHANNELS 3 Zrotation Yrotation Xrotation
				JOINT RightFoot
				{
					OFFSET -2.63179 -7.23079 0.00000
					CHANNELS 3 Zrotation Yrotation Xrotation
					JOINT RightToeBase
					{
						OFFSET -0.24131 -0.66299 2.03908
						CHANNELS 3 Zrotation Yrotation Xrotation
						End Site
						{
							OFFSET -0.00000 -0.00000 1.07391
						}
					}
				}
			}
		}
	}
	JOINT LowerBack
	{
		OFFSET 0 0 0
		CHANNELS 3 Zrotation Yrotation Xrotation
		JOINT Spine
		{
			OFFSET 0.01174 2.10302 -0.29778
			CHANNELS 3 Zrotation Yrotation Xrotation
			JOINT Spine1
			{
				OFFSET 0.00772 2.13227 -0.01247
				CHANNELS 3 Zrotation Yrotation Xrotation
				JOINT Neck
				{
					OFFSET 0 0 0
					CHANNELS 3 Zrotation Yrotation Xrotation
					JOINT Neck1
					{
						OFFSET -0.09219 1.60848 0.31481
						CHANNELS 3 Zrotation Yrotation Xrotation
						JOINT Head
						{
							OFFSET 0.13974 1.65456 -0.31134
							CHANNELS 3 Zrotation Yrotation Xrotation
							End Site
							{
								OFFSET 0.04742 1.69515 -0.14578
							}
						}
					}
				}
				JOINT LeftShoulder
				{
					OFFSET 0 0 0
					CHANNELS 3 Zrotation Yrotation Xrotation
					JOINT LeftArm
					{
						OFFSET 3.24909 1.02882 -0.23993
						CHANNELS 3 Zrotation Yrotation Xrotation
						JOINT LeftForeArm
						{
							OFFSET 5.32955 -0.00000 -0.00000
							CHANNELS 3 Zrotation Yrotation Xrotation
							JOINT LeftHand
							{
								OFFSET 3.69232 -0.00000 -0.00000
								CHANNELS 3 Zrotation Yrotation Xrotation
								JOINT LeftFingerBase
								{
									OFFSET 0 0 0
									CHANNELS 3 Zrotation Yrotation Xrotation
									JOINT LeftHandIndex1
									{
										OFFSET 0.53660 -0.00000 -0.00000
										CHANNELS 3 Zrotation Yrotation Xrotation
										End Site
										{
											OFFSET 0.43262 -0.00000 -0.00000
										}
									}
								}
								JOINT LThumb
								{
									OFFSET 0 0 0
									CHANNELS 3 Zrotation Yrotation Xrotation
									End Site
									{
										OFFSET 0.43922 -0.00000 0.43922
									}
								}
							}
						}
					}
				}
				JOINT RightShoulder
				{
					OFFSET 0 0 0
					CHANNELS 3 Zrotation Yrotation Xrotation
					JOINT RightArm
					{
						OFFSET -3.21387 0.93002 -0.34594
						CHANNELS 3 Zrotation Yrotation Xrotation
						JOINT RightForeArm
						{
							OFFSET -5.23431 -0.00000 0.00000
							CHANNELS 3 Zrotation Yrotation Xrotation
							JOINT RightHand
							{
								OFFSET -3.55301 -0.00000 -0.00000
								CHANNELS 3 Zrotation Yrotation Xrotation
								JOINT RightFingerBase
								{
									OFFSET 0 0 0
									CHANNELS 3 Zrotation Yrotation Xrotation
									JOINT RightHandIndex1
									{
										OFFSET -0.77252 -0.00000 -0.00000
										CHANNELS 3 Zrotation Yrotation Xrotation
										End Site
										{
											OFFSET -0.62283 -0.00000 -0.00000
										}
									}
								}
								JOINT RThumb
								{
									OFFSET 0 0 0
									CHANNELS 3 Zrotation Yrotation Xrotation
									End Site
									{
										OFFSET -0.63234 -0.00000 0.63234
									}
								}
							}
						}
					}
				}
			}
		}
	}
}
MOTION
Frames: 10
Frame Time: .0083333
7.0730 17.8402 -3.3255 8.0061 -49.6056 -7.9615 0.0000 0.0000 0.0000 -28.8797 -1.3888 -7.0866 1.2341 7.0449 19.8485 -0.3476 -13.8603 -4.7358 0.5078 4.5677 12.6795 0.0000 0.0000 0.0000 13.6180 2.0548 -22.6167 -11.6392 -18.2339 64.8406 -0.2314 2.5714 -8.5602 -0.0032 -0.3666 1.0072 -5.4941 1.1122 9.8845 -0.6995 0.8311 1.5121 2.2538 0.4713 -4.0361 -10.0243 -3.4936 -19.1199 6.3745 -4.1276 31.0204 3.5551 -2.2153 14.1669 -0.0000 0.0000 0.0000 -81.8277 6.6116 24.2370 23.1471 -34.2493 -7.2209 -0.0000 -0.0000 2.2608 17.7003 23.7019 7.3106 -7.1250 0.0000 -0.0000 -12.1995 54.3062 -2.8218 -0.0000 0.0000 0.0000 84.3245 -6.6483 20.8416 -19.2470 29.7245 -5.1528 0.0000 0.0000 2.0572 -16.5150 11.4413 -3.3659 7.1250 -0.0000 -0.0000 7.4442 -18.1185 4.8008
6.9737 17.8134 -3.2386 8.4445 -49.3295 -8.3225 0.0000 0.0000 0.0000 -29.3395 -1.9196 -6.8056 1.3371 7.3217 20.6719 -0.2968 -13.4268 -5.1103 0.6999 5.3476 14.9027 0.0000 0.0000 0.0000 13.2412 2.3671 -23.5495 -11.3273 -18.0916 63.8401 -0.2563 2.8964 -9.0028 -0.0001 0.0575 -0.1581 -5.8991 1.0287 9.8952 -0.7397 0.6733 1.4987 2.4603 0.3991 -4.0475 -10.0518 -3.4751 -18.9764 6.4626 -4.1229 30.7936 3.5905 -2.2015 14.0377 0.0000 -0.0000 0.0000 -81.7221 6.3821 24.2196 23.3679 -34.4886 -7.3455 -0.0000 -0.0000 2.4409 17.3762 23.7886 7.1939 -7.1250 0.0000 -0.0000 -12.5669 54.3310 -2.9165 0.0000 -0.0000 0.0000 83.9902 -6.7897 21.7311 -19.4663 29.9940 -5.2619 0.0000 0.0000 1.3724 -16.7049 11.1943 -3.3344 7.1250 -0.0000 -0.0000 7.3116 -18.3599 4.6746
6.8749 17.7758 -3.1547 8.5842 -49.0135 -8.4697 0.0000 0.0000 0.0000 -29.6065 -2.0851 -6.4803 1.4188 7.5329 21.3040 -0.2572 -13.3292 -5.6790 0.6615 5.2017 14.4846 0.0000 0.0000 0.0000 13.1170 2.6247 -24.4975 -10.9913 -17.9308 62.7532 -0.2839 2.9198 -9.4813 -0.0155 0.8026 -2.2058 -6.2811 0.9646 10.0679 -0.6161 0.5376 1.4220 2.8209 0.3451 -4.2169 -10.0332 -3.4768 -18.8939 6.3328 -4.0887 30.6730 3.5364 -2.2004 13.9600 0.0000 -0.0000 0.0000 -81.7340 6.1716 24.3483 23.5227 -34.6554 -7.4334 -0.0000 -0.0000 2.3533 17.1409 23.7956 7.0934 -7.1250 0.0000 -0.0000 -12.8080 54.2933 -2.9620 0.0000 -0.0000 0.0000 83.6485 -6.9297 22.0627 -19.5956 30.1520 -5.3267 0.0000 0.0000 1.2399 -16.7131 11.1580 -3.3255 7.1250 -0.0000 -0.0000 7.3059 -18.3968 4.6649
6.7741 17.7422 -3.0642 8.4692 -48.7856 -8.4883 0.0000 0.0000 0.0000 -29.6738 -2.0862 -6.1441 1.4818 7.6911 21.7798 -0.2070 -13.1899 -6.3495 0.4396 4.2542 11.7931 0.0000 0.0000 0.0000 13.1717 2.9072 -25.2262 -10.6073 -17.7375 61.4995 -0.3257 2.9682 -10.1667 -0.0055 0.4775 -1.3120 -6.5344 0.8491 10.3399 -0.3794 0.3434 1.2983 3.2370 0.2667 -4.4827 -10.2415 -3.4388 -18.9309 6.3136 -3.9607 30.8280 3.5917 -2.1766 14.0280 -0.0000 0.0000 0.0000 -81.9312 6.1924 24.3532 23.6956 -34.8407 -7.5319 -0.0000 -0.0000 2.2358 17.5878 23.7091 7.2636 -7.1250 0.0000 -0.0000 -12.3168 54.2920 -2.8453 -0.0000 0.0000 0.0000 83.2757 -7.0124 22.0349 -19.5335 30.0763 -5.2956 0.0000 0.0000 1.7324 -16.6801 11.3610 -3.3780 7.1250 -0.0000 -0.0000 7.3287 -18.1898 4.7134
6.6689 17.7202 -2.9715 8.5124 -48.6651 -8.6261 0.0000 0.0000 0.0000 -29.8090 -2.1681 -5.6951 1.5318 7.8140 22.1505 -0.1518 -12.9678 -6.9930 0.3294 3.6886 10.2021 0.0000 0.0000 0.0000 13.1025 3.3481 -25.7583 -10.1687 -17.5036 60.0507 -0.3761 3.1627 -10.9300 -0.0141 -0.7673 2.1088 -6.3172 0.7936 10.0575 -0.5769 0.3137 1.5613 2.9134 0.2266 -4.0437 -10.1915 -3.5108 -19.2326 6.5289 -4.1138 30.7462 3.6420 -2.1987 14.0782 -0.0000 -0.0000 0.0000 -81.4140 5.6179 24.6897 23.9306 -35.0907 -7.6666 -0.0000 -0.0000 2.0914 18.1301 23.5821 7.4628 -7.1250 0.0000 -0.0000 -11.7107 54.2682 -2.6954 -0.0000 -0.0000 0.0000 83.6445 -6.4749 21.3795 -19.3412 29.8404 -5.1995 0.0000 0.0000 2.4317 -16.5142 11.7162 -3.4453 7.1250 -0.0000 -0.0000 7.4444 -17.8355 4.8477
6.5650 17.7044 -2.8813 8.6515 -48.5395 -8.7785 0.0000 0.0000 0.0000 -30.0165 -2.1968 -5.1053 1.5665 7.8978 22.4041 -0.1183 -12.9597 -7.4807 0.3121 3.5915 9.9302 0.0000 0.0000 0.0000 12.9864 3.7154 -26.3741 -9.6798 -17.2258 58.4128 -0.4050 3.1066 -11.3552 -0.0105 -0.6626 1.8207 -6.2964 0.7338 9.9122 -0.7166 0.2445 1.6768 2.7658 0.1818 -3.8345 -10.0875 -3.5449 -19.3128 6.5630 -4.1915 30.5966 3.6194 -2.2094 14.0364 0.0000 -0.0000 0.0000 -81.0174 5.2529 24.9147 24.2028 -35.3780 -7.8237 -0.0000 -0.0000 1.9621 17.9241 23.6074 7.3807 -7.1250 0.0000 -0.0000 -11.9306 54.2544 -2.7431 0.0000 -0.0000 0.0000 83.8776 -6.2264 21.0949 -19.2829 29.7686 -5.1705 0.0000 0.0000 2.7421 -16.3287 11.8610 -3.4459 7.1250 -0.0000 -0.0000 7.5738 -17.6998 4.9563
6.4593 17.6829 -2.7905 8.9323 -48.4190 -9.0548 0.0000 0.0000 0.0000 -30.3117 -2.0589 -4.5009 1.5832 7.9377 22.5252 -0.0985 -13.1005 -7.8805 0.2910 3.4688 9.5868 0.0000 0.0000 0.0000 12.8309 3.9312 -26.9656 -9.1508 -16.9038 56.6102 -0.4229 2.6336 -11.6599 -0.0129 0.7338 -2.0165 -6.7226 0.7397 10.0137 -0.6208 0.2009 1.6153 3.1109 0.1715 -3.9528 -10.1909 -3.6059 -19.1971 6.4246 -4.2061 30.5187 3.5754 -2.2469 13.9794 0.0000 -0.0000 0.0000 -81.1050 5.1262 24.9814 24.4239 -35.6093 -7.9520 -0.0000 -0.0000 2.0682 17.3822 23.9676 7.2470 -7.1250 0.0000 -0.0000 -12.6432 54.5105 -2.9903 0.0000 -0.0000 0.0000 83.6048 -6.3621 21.1438 -19.3046 29.7955 -5.1814 0.0000 0.0000 2.8056 -16.2750 11.7220 -3.3944 7.1250 -0.0000 -0.0000 7.6114 -17.8465 4.9566
6.3527 17.6665 -2.6997 9.1242 -48.3855 -9.3001 0.0000 0.0000 0.0000 -30.4928 -1.7861 -3.9270 1.5835 7.9385 22.5274 -0.0884 -13.3521 -8.2222 0.3095 3.5765 9.8881 0.0000 0.0000 0.0000 12.7301 4.2554 -27.3493 -8.5966 -16.5410 54.6842 -0.4366 2.1953 -11.9165 -0.0388 1.2709 -3.4945 -7.1325 0.7458 10.1589 -0.4975 0.1561 1.5659 3.4766 0.1614 -4.0819 -10.3054 -3.6263 -19.2026 6.4078 -4.1921 30.5465 3.5915 -2.2575 13.9947 -0.0000 0.0000 0.0000 -81.1918 4.9845 25.0949 24.5407 -35.7308 -8.0201 -0.0000 -0.0000 2.1091 17.3559 23.8000 7.1884 -7.1250 0.0000 -0.0000 -12.5927 54.3385 -2.9249 -0.0000 0.0000 0.0000 83.3018 -6.4819 21.3286 -19.3026 29.7929 -5.1803 0.0000 0.0000 2.7991 -16.3750 11.5266 -3.3603 7.1250 -0.0000 -0.0000 7.5421 -18.0405 4.8781
6.2463 17.6607 -2.6136 8.9880 -48.3811 -9.2208 0.0000 0.0000 0.0000 -30.3684 -1.4288 -3.4129 1.5636 7.8909 22.3831 -0.0365 -13.4576 -8.9859 0.2242 3.0477 8.4117 0.0000 0.0000 0.0000 12.8495 4.7455 -27.6951 -8.0219 -16.1354 52.6417 -0.4447 1.8517 -12.0916 -0.0288 1.0956 -3.0118 -6.8270 0.6751 10.0072 -0.7092 0.1015 1.6682 3.0903 0.1191 -3.8834 -10.1312 -3.6026 -19.2383 6.7405 -4.3206 30.4136 3.6713 -2.2439 13.9601 -0.0000 0.0000 0.0000 -80.5266 4.5695 25.5352 24.5624 -35.7534 -8.0328 -0.0000 -0.0000 1.7585 18.0760 23.1527 7.3128 -7.1250 0.0000 -0.0000 -11.5783 53.8269 -2.5389 -0.0000 0.0000 0.0000 83.6785 -6.3178 21.3974 -19.3134 29.8062 -5.1857 0.0000 0.0000 2.7879 -16.6172 11.3006 -3.3469 7.1250 -0.0000 -0.0000 7.3729 -18.2563 4.7314
6.1385 17.6540 -2.5293 8.9551 -48.3226 -9.2330 0.0000 0.0000 0.0000 -30.2953 -1.0321 -2.7995 1.5196 7.7842 22.0605 0.0130 -13.5405 -9.6628 0.1606 2.5819 7.1169 0.0000 0.0000 0.0000 12.9018 5.2007 -28.0220 -7.4437 -15.6944 50.5330 -0.4389 1.4064 -12.1052 -0.0369 1.2392 -3.4073 -7.2936 0.6724 10.1830 -0.3965 0.0438 1.5621 3.6887 0.1092 -4.0866 -10.3435 -3.6011 -19.1619 6.6255 -4.2147 30.4263 3.6801 -2.2405 13.9416 -0.0000 -0.0000 0.0000 -80.8658 4.5273 25.7000 24.6693 -35.8641 -8.0954 -0.0000 -0.0000 1.7388 18.5675 23.3422 7.5811 -7.1250 0.0000 -0.0000 -11.1628 54.1102 -2.5236 -0.0000 -0.0000 0.0000 83.1900 -6.4205 21.4673 -19.2675 29.7497 -5.1629 0.0000 0.0000 2.6580 -16.5639 11.2864 -3.3315 7.1250 -0.0000 -0.0000 7.4104 -18.2747 4.7529
